<svg width="35" height="35" viewBox="0 0 35 35" xmlns="http://www.w3.org/2000/svg" xmlns:xlink="http://www.w3.org/1999/xlink"><defs><path d="M17.5 35C27.165 35 35 27.165 35 17.5S27.165 0 17.5 0 0 7.835 0 17.5 7.835 35 17.5 35z" id="a" /></defs><g fill="none" fill-rule="evenodd"><g><mask id="b" fill="#fff"><use xlink:href="#a" /></mask><path d="M17.5 35C27.165 35 35 27.165 35 17.5S27.165 0 17.5 0 0 7.835 0 17.5 7.835 35 17.5 35z" mask="url(#b)" stroke="#EEE" /></g><path d="M15.538 20.473v-5.53l5.133 2.775-5.132 2.755zm11.272-6.487s-.185-1.356-.755-1.953c-.723-.784-1.532-.788-1.904-.834-2.658-.2-6.646-.2-6.646-.2h-.008s-3.988 0-6.647.2c-.373.045-1.182.05-1.905.833-.57.597-.755 1.953-.755 1.953S8 15.578 8 17.17v1.494c0 1.592.19 3.185.19 3.185s.185 1.355.755 1.952c.723.784 1.672.76 2.095.84 1.52.152 6.46.2 6.46.2s3.992-.008 6.65-.207c.373-.046 1.182-.05 1.905-.833.57-.597.755-1.953.755-1.953s.19-1.594.19-3.186V17.17c0-1.592-.19-3.184-.19-3.184z" fill="#FFF" /></g></svg>